<mxfile host="app.diagrams.net" modified="2024-07-24T02:11:51.250Z" agent="Mozilla/5.0 (Windows NT 10.0; Win64; x64) AppleWebKit/537.36 (KHTML, like Gecko) Chrome/126.0.0.0 Safari/537.36" etag="17JFcRCP2wl-0QO17s51" version="24.7.1" type="device">
  <diagram name="Page-1" id="7I3p4nZgkBvm8f12alZR">
    <mxGraphModel dx="1900" dy="583" grid="1" gridSize="10" guides="1" tooltips="1" connect="1" arrows="1" fold="1" page="1" pageScale="1" pageWidth="850" pageHeight="1100" math="0" shadow="0">
      <root>
        <mxCell id="0" />
        <mxCell id="1" parent="0" />
        <mxCell id="3vc8aRRAiU6zPTknfC_v-1" value="&lt;b&gt;AWS Account&lt;/b&gt;" style="points=[[0,0],[0.25,0],[0.5,0],[0.75,0],[1,0],[1,0.25],[1,0.5],[1,0.75],[1,1],[0.75,1],[0.5,1],[0.25,1],[0,1],[0,0.75],[0,0.5],[0,0.25]];outlineConnect=0;html=1;whiteSpace=wrap;fontSize=12;fontStyle=0;container=1;pointerEvents=0;collapsible=0;recursiveResize=0;shape=mxgraph.aws4.group;grIcon=mxgraph.aws4.group_account;strokeColor=#6c8ebf;fillColor=#dae8fc;verticalAlign=top;align=left;spacingLeft=30;dashed=0;" vertex="1" parent="1">
          <mxGeometry x="400" y="80" width="360" height="360" as="geometry" />
        </mxCell>
        <mxCell id="3vc8aRRAiU6zPTknfC_v-4" style="edgeStyle=orthogonalEdgeStyle;rounded=0;orthogonalLoop=1;jettySize=auto;html=1;entryX=0;entryY=0.5;entryDx=0;entryDy=0;" edge="1" parent="1" source="3vc8aRRAiU6zPTknfC_v-2" target="3vc8aRRAiU6zPTknfC_v-3">
          <mxGeometry relative="1" as="geometry" />
        </mxCell>
        <mxCell id="3vc8aRRAiU6zPTknfC_v-7" style="edgeStyle=orthogonalEdgeStyle;rounded=0;orthogonalLoop=1;jettySize=auto;html=1;" edge="1" parent="1" source="3vc8aRRAiU6zPTknfC_v-2" target="3vc8aRRAiU6zPTknfC_v-6">
          <mxGeometry relative="1" as="geometry" />
        </mxCell>
        <mxCell id="3vc8aRRAiU6zPTknfC_v-11" style="edgeStyle=orthogonalEdgeStyle;rounded=0;orthogonalLoop=1;jettySize=auto;html=1;" edge="1" parent="1" source="3vc8aRRAiU6zPTknfC_v-2" target="3vc8aRRAiU6zPTknfC_v-9">
          <mxGeometry relative="1" as="geometry" />
        </mxCell>
        <mxCell id="3vc8aRRAiU6zPTknfC_v-12" style="edgeStyle=orthogonalEdgeStyle;rounded=0;orthogonalLoop=1;jettySize=auto;html=1;entryX=0;entryY=0.5;entryDx=0;entryDy=0;" edge="1" parent="1" source="3vc8aRRAiU6zPTknfC_v-2" target="3vc8aRRAiU6zPTknfC_v-10">
          <mxGeometry relative="1" as="geometry" />
        </mxCell>
        <mxCell id="3vc8aRRAiU6zPTknfC_v-2" value="" style="html=1;verticalLabelPosition=bottom;align=center;labelBackgroundColor=#ffffff;verticalAlign=top;strokeWidth=2;strokeColor=#0080F0;shadow=0;dashed=0;shape=mxgraph.ios7.icons.user;" vertex="1" parent="1">
          <mxGeometry x="-80" y="205" width="100" height="110" as="geometry" />
        </mxCell>
        <mxCell id="3vc8aRRAiU6zPTknfC_v-5" style="edgeStyle=orthogonalEdgeStyle;rounded=0;orthogonalLoop=1;jettySize=auto;html=1;" edge="1" parent="1" source="3vc8aRRAiU6zPTknfC_v-3" target="3vc8aRRAiU6zPTknfC_v-1">
          <mxGeometry relative="1" as="geometry" />
        </mxCell>
        <mxCell id="3vc8aRRAiU6zPTknfC_v-3" value="&lt;b&gt;Console&lt;/b&gt;" style="rounded=0;whiteSpace=wrap;html=1;fillColor=#f5f5f5;fontColor=#333333;strokeColor=#666666;" vertex="1" parent="1">
          <mxGeometry x="160" y="110" width="120" height="60" as="geometry" />
        </mxCell>
        <mxCell id="3vc8aRRAiU6zPTknfC_v-8" style="edgeStyle=orthogonalEdgeStyle;rounded=0;orthogonalLoop=1;jettySize=auto;html=1;" edge="1" parent="1" source="3vc8aRRAiU6zPTknfC_v-6">
          <mxGeometry relative="1" as="geometry">
            <mxPoint x="380" y="260" as="targetPoint" />
          </mxGeometry>
        </mxCell>
        <mxCell id="3vc8aRRAiU6zPTknfC_v-6" value="&lt;b&gt;Terraform&lt;/b&gt;" style="rounded=0;whiteSpace=wrap;html=1;fillColor=#f5f5f5;fontColor=#333333;strokeColor=#666666;" vertex="1" parent="1">
          <mxGeometry x="160" y="200" width="120" height="60" as="geometry" />
        </mxCell>
        <mxCell id="3vc8aRRAiU6zPTknfC_v-13" style="edgeStyle=orthogonalEdgeStyle;rounded=0;orthogonalLoop=1;jettySize=auto;html=1;" edge="1" parent="1" source="3vc8aRRAiU6zPTknfC_v-9">
          <mxGeometry relative="1" as="geometry">
            <mxPoint x="350" y="250" as="targetPoint" />
          </mxGeometry>
        </mxCell>
        <mxCell id="3vc8aRRAiU6zPTknfC_v-9" value="&lt;b&gt;AWS CLI&lt;/b&gt;" style="rounded=0;whiteSpace=wrap;html=1;fillColor=#f5f5f5;fontColor=#333333;strokeColor=#666666;" vertex="1" parent="1">
          <mxGeometry x="160" y="290" width="120" height="60" as="geometry" />
        </mxCell>
        <mxCell id="3vc8aRRAiU6zPTknfC_v-14" style="edgeStyle=orthogonalEdgeStyle;rounded=0;orthogonalLoop=1;jettySize=auto;html=1;" edge="1" parent="1" source="3vc8aRRAiU6zPTknfC_v-10">
          <mxGeometry relative="1" as="geometry">
            <mxPoint x="360" y="260" as="targetPoint" />
          </mxGeometry>
        </mxCell>
        <mxCell id="3vc8aRRAiU6zPTknfC_v-10" value="&lt;b&gt;AWS SDK&lt;/b&gt;" style="rounded=0;whiteSpace=wrap;html=1;fillColor=#f5f5f5;fontColor=#333333;strokeColor=#666666;" vertex="1" parent="1">
          <mxGeometry x="160" y="390" width="120" height="60" as="geometry" />
        </mxCell>
      </root>
    </mxGraphModel>
  </diagram>
</mxfile>
